<svg version="1.1" xmlns="http://www.w3.org/2000/svg" xmlns:xlink="http://www.w3.org/1999/xlink" width="61" height="61"><defs/><g><path fill="rgb(173,209,54)" stroke="none" paint-order="stroke fill markers" fill-rule="evenodd" d=" M 59.03319525718689 19.396597802639008 C 58.499393939971924 19.396597802639008 58.0666344165802 18.965119004249573 58.0666344165802 18.43224161863327 C 58.0666344165802 18.43224161863327 58.0666344165802 5.4519389271736145 58.0666344165802 5.4519389271736145 C 58.0666344165802 5.4519389271736145 47.285537004470825 16.231849491596222 47.285537004470825 16.231849491596222 C 48.122153759002686 17.14058619737625 48.888800621032715 18.113713145256042 49.58780217170715 19.13711154460907 C 49.58780217170715 19.13711154460907 49.60585641860962 19.118500411510468 49.60585641860962 19.118500411510468 C 49.7547070980072 19.334346771240234 49.88658833503723 19.56367015838623 50.029162645339966 19.78443670272827 C 50.064186334609985 19.84005618095398 50.099210023880005 19.894178211688995 50.13369131088257 19.949797689914703 C 52.69398498535156 23.98670220375061 54.19690418243408 28.76013696193695 54.19690418243408 33.892959117889404 C 54.19690418243408 48.31145316362381 42.51224207878113 59.998602986335754 28.09844422340393 59.998602986335754 C 13.684646368026733 59.998602986335754 1.9998292922973633 48.31145316362381 1.9998292922973633 33.892959117889404 C 1.9998292922973633 19.47596251964569 13.684646368026733 7.789026618003845 28.09844422340393 7.789026618003845 C 33.562992095947266 7.789026618003845 38.6308114528656 9.475366413593292 42.82288360595703 12.345117568969727 C 42.82288360595703 12.345117568969727 41.44246983528137 13.725978076457977 41.44246983528137 13.725978076457977 C 37.62202072143555 11.198500633239746 33.04042625427246 9.71966427564621 28.09844422340393 9.71966427564621 C 14.714823246002197 9.71966427564621 3.9341907501220703 20.50449502468109 3.9341907501220703 33.892959117889404 C 3.9341907501220703 34.24036693572998 3.97153902053833 34.5790039896965 3.9859514236450195 34.92470043897629 C 8.048002004623413 30.862767159938812 16.011242151260376 22.89891356229782 16.011242151260376 22.89891356229782 C 16.38875412940979 22.521342873573303 17.00089383125305 22.521342873573303 17.378405809402466 22.89891356229782 C 17.378405809402466 22.89891356229782 27.63135838508606 33.1508669257164 27.63135838508606 33.1508669257164 C 27.63135838508606 33.1508669257164 56.851730823516846 3.9311740398406982 56.851730823516846 3.9311740398406982 C 56.851730823516846 3.9311740398406982 43.56651711463928 3.9311740398406982 43.56651711463928 3.9311740398406982 C 43.03263831138611 3.9311740398406982 42.599878787994385 3.4975560307502747 42.599878787994385 2.964678645133972 C 42.599878787994385 2.4305177330970764 43.03263831138611 1.9986110925674438 43.56651711463928 1.9986110925674438 C 43.56651711463928 1.9986110925674438 59.03319525718689 1.9986110925674438 59.03319525718689 1.9986110925674438 C 59.566996574401855 1.9986110925674438 59.99983358383179 2.4305177330970764 59.99983358383179 2.964678645133972 C 59.99983358383179 2.964678645133972 59.99983358383179 18.43224161863327 59.99983358383179 18.43224161863327 C 59.99983358383179 18.965119004249573 59.566996574401855 19.396597802639008 59.03319525718689 19.396597802639008 Z"/></g></svg>